# xmcd
#
# Track frame offsets: 
#        150
#        14125
#        31623
#        43723
#        58358
#        70045
#        83498
#        94843
#        108175
#        119353
#        133765
#
# Disc length: 2032 seconds
#
# Revision: 2
# Processed by: cddbd v1.5.2PL0 Copyright (c) Steve Scherf et al.
# Submitted via: ExactAudioCopy v0.95b4
#
DISCID=8f07ee0b
DTITLE=Alan Jackson - New Traditional
DYEAR=1987
DGENRE=Country
TTITLE0=Ain't Your Memory Got No Pride At All
TTITLE1=Just Forget It, Son
TTITLE2=Merle And George
TTITLE3=Don't Touch Me
TTITLE4=Break Out The Good Stuff
TTITLE5=The Steal Of The Night
TTITLE6=When The Cat Goes Out
TTITLE7=I Couldn't Care More
TTITLE8=They Call Me A Playboy
TTITLE9=W. Lee O'Daniel And The Light Crust Dough Boys
TTITLE10=You're Not Drinkin' Enough
EXTD=
EXTT0=
EXTT1=
EXTT2=
EXTT3=
EXTT4=
EXTT5=
EXTT6=
EXTT7=
EXTT8=
EXTT9=
EXTT10=
PLAYORDER=
